<?xml version="1.0" encoding="UTF-8"?>
<!DOCTYPE svg PUBLIC "-//W3C//DTD SVG 1.1//EN" "http://www.w3.org/Graphics/SVG/1.1/DTD/svg11.dtd">
<svg xmlns="http://www.w3.org/2000/svg" version="1.1" width="125px" height="125px" style="shape-rendering:geometricPrecision; text-rendering:geometricPrecision; image-rendering:optimizeQuality; fill-rule:evenodd; clip-rule:evenodd" xmlns:xlink="http://www.w3.org/1999/xlink">
<g><path style="opacity:0.686" fill="#f0dc93" d="M 55.5,-0.5 C 57.5,-0.5 59.5,-0.5 61.5,-0.5C 62.5903,0.857056 63.9236,1.85706 65.5,2.5C 64.0697,3.53747 62.403,4.20414 60.5,4.5C 58.6941,1.66183 57.6941,1.99516 57.5,5.5C 57.1583,6.33825 56.4916,6.67158 55.5,6.5C 43.6845,8.07664 33.0179,12.41 23.5,19.5C 21.079,19.8782 18.7457,20.5448 16.5,21.5C 26.1563,11.0021 38.1563,4.66878 52.5,2.5C 54.1753,2.1316 55.1753,1.1316 55.5,-0.5 Z"/></g>
<g><path style="opacity:0.654" fill="#eed990" d="M 65.5,2.5 C 68.3854,2.1936 71.0521,2.52693 73.5,3.5C 71.1815,3.99249 69.1815,4.99249 67.5,6.5C 64.3273,6.40116 61.3273,7.06783 58.5,8.5C 56.9623,8.54656 55.9623,7.87989 55.5,6.5C 56.4916,6.67158 57.1583,6.33825 57.5,5.5C 58.609,5.44312 59.609,5.10978 60.5,4.5C 62.403,4.20414 64.0697,3.53747 65.5,2.5 Z"/></g>
<g><path style="opacity:0.712" fill="#ecd68d" d="M 73.5,3.5 C 76.4951,3.29379 79.1617,3.96046 81.5,5.5C 80.3285,6.34464 78.9952,7.01131 77.5,7.5C 74.1667,7.16667 70.8333,6.83333 67.5,6.5C 69.1815,4.99249 71.1815,3.99249 73.5,3.5 Z"/></g>
<g><path style="opacity:0.685" fill="#ead38a" d="M 81.5,5.5 C 83.5529,5.40206 85.2196,6.06873 86.5,7.5C 85.0048,7.98869 83.6715,8.65536 82.5,9.5C 80.597,9.20414 78.9303,8.53747 77.5,7.5C 78.9952,7.01131 80.3285,6.34464 81.5,5.5 Z"/></g>
<g><path style="opacity:0.691" fill="#e8d087" d="M 86.5,7.5 C 89.3933,7.03108 91.3933,8.03108 92.5,10.5C 90.597,10.7959 88.9303,11.4625 87.5,12.5C 85.9991,11.2485 84.3325,10.2485 82.5,9.5C 83.6715,8.65536 85.0048,7.98869 86.5,7.5 Z"/></g>
<g><path style="opacity:0.712" fill="#ecd68d" d="M 67.5,10.5 C 65.4939,11.4851 63.8273,12.8184 62.5,14.5C 56.3406,14.2158 50.3406,15.0491 44.5,17C 38.4877,19.6698 32.821,22.8364 27.5,26.5C 26.609,27.1098 25.609,27.4431 24.5,27.5C 22.8212,27.2852 21.8212,27.9519 21.5,29.5C 20.5,29.5 19.5,29.5 18.5,29.5C 18.8462,25.333 21.1795,23.4997 25.5,24C 27.7036,21.4055 30.3703,19.5722 33.5,18.5C 40.4817,16.4001 47.1484,13.7334 53.5,10.5C 58.1997,9.44304 62.8664,9.44304 67.5,10.5 Z"/></g>
<g><path style="opacity:0.544" fill="#eed890" d="M 53.5,10.5 C 47.1484,13.7334 40.4817,16.4001 33.5,18.5C 39.4122,14.2196 46.0788,11.5529 53.5,10.5 Z"/></g>
<g><path style="opacity:0.658" fill="#ead38a" d="M 67.5,10.5 C 69.9496,10.298 72.283,10.6314 74.5,11.5C 72.9275,12.6873 71.2608,13.6873 69.5,14.5C 67.1667,14.5 64.8333,14.5 62.5,14.5C 63.8273,12.8184 65.4939,11.4851 67.5,10.5 Z"/></g>
<g><path style="opacity:0.566" fill="#e7cd85" d="M 92.5,10.5 C 91.7717,14.379 90.1051,15.0457 87.5,12.5C 88.9303,11.4625 90.597,10.7959 92.5,10.5 Z"/></g>
<g><path style="opacity:0.681" fill="#e8d087" d="M 74.5,11.5 C 76.9653,11.767 79.2986,12.4336 81.5,13.5C 80.1667,14.5 78.8333,15.5 77.5,16.5C 74.885,15.7094 72.2184,15.0427 69.5,14.5C 71.2608,13.6873 72.9275,12.6873 74.5,11.5 Z"/></g>
<g><path style="opacity:0.711" fill="#e6cd84" d="M 81.5,13.5 C 83.1667,14.1667 84.8333,14.8333 86.5,15.5C 85.1667,16.5 83.8333,17.5 82.5,18.5C 80.9505,17.5592 79.2838,16.8925 77.5,16.5C 78.8333,15.5 80.1667,14.5 81.5,13.5 Z"/></g>
<g><path style="opacity:0.704" fill="#e4c981" d="M 86.5,15.5 C 88.7952,16.4746 90.7952,17.8079 92.5,19.5C 91.0048,19.9887 89.6715,20.6554 88.5,21.5C 86.7837,19.9752 84.7837,18.9752 82.5,18.5C 83.8333,17.5 85.1667,16.5 86.5,15.5 Z"/></g>
<g><path style="opacity:0.697" fill="#e8d088" d="M 69.5,18.5 C 67.5,19.5 65.5,20.5 63.5,21.5C 50.9983,21.5506 40.3316,25.8839 31.5,34.5C 31.5654,34.0618 31.3988,33.7284 31,33.5C 29.2745,34.464 27.4412,35.1307 25.5,35.5C 28.2311,31.7657 31.5644,28.7657 35.5,26.5C 42.8759,24.6004 49.8759,21.9337 56.5,18.5C 60.7012,17.2641 65.0345,17.2641 69.5,18.5 Z"/></g>
<g><path style="opacity:0.691" fill="#ead28a" d="M 56.5,18.5 C 49.8759,21.9337 42.8759,24.6004 35.5,26.5C 41.5126,21.492 48.5126,18.8253 56.5,18.5 Z"/></g>
<g><path style="opacity:0.649" fill="#e6cd84" d="M 69.5,18.5 C 71.5,18.8333 73.5,19.1667 75.5,19.5C 74.1667,20.5 72.8333,21.5 71.5,22.5C 68.7212,22.7214 66.0545,22.388 63.5,21.5C 65.5,20.5 67.5,19.5 69.5,18.5 Z"/></g>
<g><path style="opacity:0.707" fill="#eed990" d="M 23.5,19.5 C 21.8333,21.8333 19.8333,23.8333 17.5,25.5C 15.8828,26.038 14.2161,26.3713 12.5,26.5C 13.0798,24.2512 14.4131,22.5846 16.5,21.5C 18.7457,20.5448 21.079,19.8782 23.5,19.5 Z"/></g>
<g><path style="opacity:0.706" fill="#e5c981" d="M 75.5,19.5 C 77.9154,20.3052 80.2487,21.3052 82.5,22.5C 81.6935,23.7281 80.6935,24.7281 79.5,25.5C 76.7479,24.4885 74.0812,23.4885 71.5,22.5C 72.8333,21.5 74.1667,20.5 75.5,19.5 Z"/></g>
<g><path style="opacity:0.687" fill="#e2c67d" d="M 92.5,19.5 C 93.7095,19.9321 94.7095,20.5987 95.5,21.5C 94.5,22.1667 93.5,22.8333 92.5,23.5C 90.9382,23.2671 89.6049,22.6005 88.5,21.5C 89.6715,20.6554 91.0048,19.9887 92.5,19.5 Z"/></g>
<g><path style="opacity:0.663" fill="#e1c37a" d="M 95.5,21.5 C 96.8333,22.1667 97.8333,23.1667 98.5,24.5C 97.5,25.1667 96.5,25.8333 95.5,26.5C 94.1667,25.8333 93.1667,24.8333 92.5,23.5C 93.5,22.8333 94.5,22.1667 95.5,21.5 Z"/></g>
<g><path style="opacity:0.693" fill="#e2c67d" d="M 82.5,22.5 C 83.8333,23.1667 85.1667,23.8333 86.5,24.5C 85.3065,25.2719 84.3065,26.2719 83.5,27.5C 82.1667,26.8333 80.8333,26.1667 79.5,25.5C 80.6935,24.7281 81.6935,23.7281 82.5,22.5 Z"/></g>
<g><path style="opacity:0.684" fill="#e1c37b" d="M 86.5,24.5 C 89.0101,24.0535 91.0101,24.7202 92.5,26.5C 92.1583,27.3382 91.4916,27.6716 90.5,27.5C 88.9731,27.427 87.9731,28.0937 87.5,29.5C 86.391,29.5569 85.391,29.8902 84.5,30.5C 84.7373,29.209 84.404,28.209 83.5,27.5C 84.3065,26.2719 85.3065,25.2719 86.5,24.5 Z"/></g>
<g><path style="opacity:0.694" fill="#dfc078" d="M 98.5,24.5 C 100.027,24.427 101.027,25.0937 101.5,26.5C 100.71,27.4013 99.7095,28.0679 98.5,28.5C 97.5,27.8333 96.5,27.1667 95.5,26.5C 96.5,25.8333 97.5,25.1667 98.5,24.5 Z"/></g>
<g><path style="opacity:0.688" fill="#ecd68d" d="M 17.5,25.5 C 16.0787,28.0094 14.4121,30.3428 12.5,32.5C 10.5,33.1667 8.5,33.8333 6.5,34.5C 8.02516,31.437 10.0252,28.7703 12.5,26.5C 14.2161,26.3713 15.8828,26.038 17.5,25.5 Z"/></g>
<g><path style="opacity:0.671" fill="#ead38a" d="M 27.5,26.5 C 27.5,27.8333 27.5,29.1667 27.5,30.5C 26.5,30.5 25.5,30.5 24.5,30.5C 24.5,29.5 24.5,28.5 24.5,27.5C 25.609,27.4431 26.609,27.1098 27.5,26.5 Z"/></g>
<g><path style="opacity:0.698" fill="#e4c880" d="M 64.5,29.5 C 62.5739,31.2927 60.2406,32.2927 57.5,32.5C 58.6924,30.1217 60.359,28.1217 62.5,26.5C 63.4252,27.3569 64.0919,28.3569 64.5,29.5 Z"/></g>
<g><path style="opacity:0.616" fill="#dfc077" d="M 92.5,26.5 C 94.1094,27.6654 94.4427,28.9988 93.5,30.5C 91.1815,30.9925 89.1815,31.9925 87.5,33.5C 86.1667,32.8333 85.1667,31.8333 84.5,30.5C 85.391,29.8902 86.391,29.5569 87.5,29.5C 89.5983,30.9143 90.5983,30.2476 90.5,27.5C 91.4916,27.6716 92.1583,27.3382 92.5,26.5 Z"/></g>
<g><path style="opacity:0.736" fill="#ddbd75" d="M 101.5,26.5 C 102.488,27.795 103.488,29.1283 104.5,30.5C 103.041,30.4326 101.708,30.7659 100.5,31.5C 99.8333,30.5 99.1667,29.5 98.5,28.5C 99.7095,28.0679 100.71,27.4013 101.5,26.5 Z"/></g>
<g><path style="opacity:0.701" fill="#ead28a" d="M 18.5,29.5 C 19.5,29.5 20.5,29.5 21.5,29.5C 22.391,30.1098 23.391,30.4431 24.5,30.5C 22.4907,32.0652 20.1573,33.0652 17.5,33.5C 17.8333,32.1667 18.1667,30.8333 18.5,29.5 Z"/></g>
<g><path style="opacity:0.706" fill="#e2c67d" d="M 64.5,29.5 C 65.6737,30.5137 66.3404,31.847 66.5,33.5C 64.3024,33.8751 62.3024,34.5418 60.5,35.5C 59.8333,35.5 59.5,35.8333 59.5,36.5C 57.8612,36.9258 56.5279,36.9258 55.5,36.5C 56.1667,35.1667 56.8333,33.8333 57.5,32.5C 60.2406,32.2927 62.5739,31.2927 64.5,29.5 Z"/></g>
<g><path style="opacity:0.671" fill="#e9d088" d="M 24.5,30.5 C 25.5,30.5 26.5,30.5 27.5,30.5C 26.2644,32.8275 24.2644,33.9942 21.5,34C 20.3034,36.0153 18.9701,37.8487 17.5,39.5C 15.7839,39.6287 14.1172,39.962 12.5,40.5C 13.8109,37.8646 15.4776,35.5313 17.5,33.5C 20.1573,33.0652 22.4907,32.0652 24.5,30.5 Z"/></g>
<g><path style="opacity:0.678" fill="#ddbd75" d="M 93.5,30.5 C 94.8333,31.1667 95.8333,32.1667 96.5,33.5C 94.9731,33.427 93.9731,34.0937 93.5,35.5C 91.8583,33.9192 89.8583,33.2525 87.5,33.5C 89.1815,31.9925 91.1815,30.9925 93.5,30.5 Z"/></g>
<g><path style="opacity:0.707" fill="#dbb971" d="M 104.5,30.5 C 105.906,30.9731 106.573,31.9731 106.5,33.5C 105.609,34.1098 104.609,34.4431 103.5,34.5C 102.167,33.8333 101.167,32.8333 100.5,31.5C 101.708,30.7659 103.041,30.4326 104.5,30.5 Z"/></g>
<g><path style="opacity:0.709" fill="#d9b770" d="M 117.5,35.5 C 116.609,36.1098 115.609,36.4431 114.5,36.5C 110.68,35.0707 110.013,32.9041 112.5,30C 116.32,29.6577 117.986,31.491 117.5,35.5 Z"/></g>
<g><path style="opacity:0.703" fill="#ead38a" d="M 12.5,32.5 C 11.7515,34.3325 10.7515,35.9991 9.5,37.5C 7.88277,38.038 6.2161,38.3713 4.5,38.5C 5.16667,37.1667 5.83333,35.8333 6.5,34.5C 8.5,33.8333 10.5,33.1667 12.5,32.5 Z"/></g>
<g><path style="opacity:0.533" fill="#e1c37a" d="M 66.5,33.5 C 67.9063,33.9731 68.573,34.9731 68.5,36.5C 67.609,37.1098 66.609,37.4431 65.5,37.5C 64.0335,34.7417 63.3668,35.075 63.5,38.5C 62.609,39.1098 61.609,39.4431 60.5,39.5C 60.5,38.1667 60.5,36.8333 60.5,35.5C 62.3024,34.5418 64.3024,33.8751 66.5,33.5 Z"/></g>
<g><path style="opacity:0.701" fill="#dbb971" d="M 96.5,33.5 C 97.8333,34.1667 98.8333,35.1667 99.5,36.5C 98.1667,36.8333 96.8333,37.1667 95.5,37.5C 94.5,37.1667 93.8333,36.5 93.5,35.5C 93.9731,34.0937 94.9731,33.427 96.5,33.5 Z"/></g>
<g><path style="opacity:0.683" fill="#e6cd84" d="M 31.5,34.5 C 30.1667,36.5 28.5,38.1667 26.5,39.5C 24.7839,39.6287 23.1172,39.962 21.5,40.5C 22.604,38.6115 23.9373,36.9448 25.5,35.5C 27.4412,35.1307 29.2745,34.464 31,33.5C 31.3988,33.7284 31.5654,34.0618 31.5,34.5 Z"/></g>
<g><path style="opacity:0.71" fill="#d9b66f" d="M 106.5,33.5 C 108.063,34.9448 109.396,36.6115 110.5,38.5C 109.167,38.8333 107.833,39.1667 106.5,39.5C 105.11,38.1007 104.11,36.4341 103.5,34.5C 104.609,34.4431 105.609,34.1098 106.5,33.5 Z"/></g>
<g><path style="opacity:0.696" fill="#d6b36d" d="M 117.5,35.5 C 119.008,37.1815 120.008,39.1815 120.5,41.5C 119.292,42.2341 117.959,42.5674 116.5,42.5C 115.637,40.5786 114.971,38.5786 114.5,36.5C 115.609,36.4431 116.609,36.1098 117.5,35.5 Z"/></g>
<g><path style="opacity:0.635" fill="#e1c37a" d="M 55.5,36.5 C 56.5279,36.9258 57.8612,36.9258 59.5,36.5C 58.7515,38.3325 57.7515,39.9991 56.5,41.5C 54.8828,42.038 53.2161,42.3713 51.5,42.5C 52.8465,40.4632 54.1798,38.4632 55.5,36.5 Z"/></g>
<g><path style="opacity:0.63" fill="#dfc077" d="M 68.5,36.5 C 69.4013,37.2905 70.0679,38.2905 70.5,39.5C 69.391,39.5569 68.391,39.8902 67.5,40.5C 66.5987,39.7095 65.9321,38.7095 65.5,37.5C 66.609,37.4431 67.609,37.1098 68.5,36.5 Z"/></g>
<g><path style="opacity:0.684" fill="#d9b76f" d="M 99.5,36.5 C 100.89,37.8993 101.89,39.5659 102.5,41.5C 101.167,41.8333 99.8333,42.1667 98.5,42.5C 97.7515,40.6675 96.7515,39.0009 95.5,37.5C 96.8333,37.1667 98.1667,36.8333 99.5,36.5 Z"/></g>
<g><path style="opacity:0.688" fill="#e8d087" d="M 9.5,37.5 C 8.86978,39.7496 7.86978,41.7496 6.5,43.5C 5.16667,43.8333 3.83333,44.1667 2.5,44.5C 2.97065,42.4214 3.63732,40.4214 4.5,38.5C 6.2161,38.3713 7.88277,38.038 9.5,37.5 Z"/></g>
<g><path style="opacity:0.411" fill="#dfbf77" d="M 63.5,38.5 C 63.5,39.8333 63.5,41.1667 63.5,42.5C 62.5,42.5 61.5,42.5 60.5,42.5C 60.5,41.5 60.5,40.5 60.5,39.5C 61.609,39.4431 62.609,39.1098 63.5,38.5 Z"/></g>
<g><path style="opacity:0.653" fill="#d6b36d" d="M 110.5,38.5 C 111.5,40.5 112.5,42.5 113.5,44.5C 112.167,44.8333 110.833,45.1667 109.5,45.5C 107.992,43.8185 106.992,41.8185 106.5,39.5C 107.833,39.1667 109.167,38.8333 110.5,38.5 Z"/></g>
<g><path style="opacity:0.686" fill="#e6cd84" d="M 17.5,39.5 C 17.3404,41.153 16.6737,42.4863 15.5,43.5C 13.8828,44.038 12.2161,44.3713 10.5,44.5C 11.1667,43.1667 11.8333,41.8333 12.5,40.5C 14.1172,39.962 15.7839,39.6287 17.5,39.5 Z"/></g>
<g><path style="opacity:0.704" fill="#e5c981" d="M 26.5,39.5 C 25.758,41.9798 24.758,44.3131 23.5,46.5C 21.7839,46.6287 20.1172,46.962 18.5,47.5C 19.2271,45.0462 20.2271,42.7128 21.5,40.5C 23.1172,39.962 24.7839,39.6287 26.5,39.5 Z"/></g>
<g><path style="opacity:0.638" fill="#ddbd74" d="M 70.5,39.5 C 71.4013,40.2905 72.0679,41.2905 72.5,42.5C 71.609,43.1098 70.609,43.4431 69.5,43.5C 68.0937,43.0269 67.427,42.0269 67.5,40.5C 68.391,39.8902 69.391,39.5569 70.5,39.5 Z"/></g>
<g><path style="opacity:0.644" fill="#dfbf77" d="M 56.5,41.5 C 55.7368,43.3684 54.7368,45.0351 53.5,46.5C 52.0413,46.4326 50.7079,46.7659 49.5,47.5C 49.8925,45.7162 50.5592,44.0495 51.5,42.5C 53.2161,42.3713 54.8828,42.038 56.5,41.5 Z"/></g>
<g><path style="opacity:0.676" fill="#d6b36d" d="M 102.5,41.5 C 104.008,43.1815 105.008,45.1815 105.5,47.5C 104.167,47.8333 102.833,48.1667 101.5,48.5C 100.877,46.2895 99.8772,44.2895 98.5,42.5C 99.8333,42.1667 101.167,41.8333 102.5,41.5 Z"/></g>
<g><path style="opacity:0.665" fill="#d2b06c" d="M 120.5,41.5 C 121.939,43.588 122.606,45.9214 122.5,48.5C 121.041,48.4326 119.708,48.7659 118.5,49.5C 118.233,47.0347 117.566,44.7014 116.5,42.5C 117.959,42.5674 119.292,42.2341 120.5,41.5 Z"/></g>
<g><path style="opacity:0.434" fill="#ddbd75" d="M 60.5,42.5 C 61.5,42.5 62.5,42.5 63.5,42.5C 63.5,43.8333 63.5,45.1667 63.5,46.5C 62.5,46.5 61.5,46.5 60.5,46.5C 60.5,45.1667 60.5,43.8333 60.5,42.5 Z"/></g>
<g><path style="opacity:0.663" fill="#dbb971" d="M 72.5,42.5 C 73.1098,43.391 73.4431,44.391 73.5,45.5C 72.8333,46.1667 72.1667,46.8333 71.5,47.5C 70.3263,46.4863 69.6596,45.153 69.5,43.5C 70.609,43.4431 71.609,43.1098 72.5,42.5 Z"/></g>
<g><path style="opacity:0.679" fill="#e6cd84" d="M 6.5,43.5 C 6.56745,44.9587 6.23411,46.2921 5.5,47.5C 4.16667,47.8333 2.83333,48.1667 1.5,48.5C 1.23219,46.901 1.56552,45.5676 2.5,44.5C 3.83333,44.1667 5.16667,43.8333 6.5,43.5 Z"/></g>
<g><path style="opacity:0.658" fill="#e4c981" d="M 15.5,43.5 C 14.8333,45.8333 14.1667,48.1667 13.5,50.5C 11.7839,50.6287 10.1172,50.962 8.5,51.5C 9.16667,49.1667 9.83333,46.8333 10.5,44.5C 12.2161,44.3713 13.8828,44.038 15.5,43.5 Z"/></g>
<g><path style="opacity:0.674" fill="#d2b06c" d="M 113.5,44.5 C 113.971,46.5786 114.637,48.5786 115.5,50.5C 114.292,51.2341 112.959,51.5674 111.5,51.5C 110.262,49.7857 109.595,47.7857 109.5,45.5C 110.833,45.1667 112.167,44.8333 113.5,44.5 Z"/></g>
<g><path style="opacity:0.677" fill="#e2c67e" d="M 23.5,46.5 C 22.8333,47.8333 22.1667,49.1667 21.5,50.5C 20.1667,50.8333 18.8333,51.1667 17.5,51.5C 17.2322,49.901 17.5655,48.5676 18.5,47.5C 20.1172,46.962 21.7839,46.6287 23.5,46.5 Z"/></g>
<g><path style="opacity:0.658" fill="#ddbd74" d="M 53.5,46.5 C 52.7368,48.3684 51.7368,50.0351 50.5,51.5C 49.0413,51.4326 47.7079,51.7659 46.5,52.5C 46.7497,50.326 47.7497,48.6594 49.5,47.5C 50.7079,46.7659 52.0413,46.4326 53.5,46.5 Z"/></g>
<g><path style="opacity:0.434" fill="#dbb971" d="M 60.5,46.5 C 61.5,46.5 62.5,46.5 63.5,46.5C 63.5,47.8333 63.5,49.1667 63.5,50.5C 62.5,50.5 61.5,50.5 60.5,50.5C 60.5,49.1667 60.5,47.8333 60.5,46.5 Z"/></g>
<g><path style="opacity:0.695" fill="#d9b76f" d="M 73.5,45.5 C 75.2503,46.6594 76.2503,48.326 76.5,50.5C 75.791,51.404 74.791,51.7373 73.5,51.5C 72.8333,50.1667 72.1667,48.8333 71.5,47.5C 72.1667,46.8333 72.8333,46.1667 73.5,45.5 Z"/></g>
<g><path style="opacity:0.655" fill="#e4c981" d="M 5.5,47.5 C 5.16667,49.5 4.83333,51.5 4.5,53.5C 2.88277,54.038 1.2161,54.3713 -0.5,54.5C -0.5,53.8333 -0.5,53.1667 -0.5,52.5C 0.166667,51.1667 0.833333,49.8333 1.5,48.5C 2.83333,48.1667 4.16667,47.8333 5.5,47.5 Z"/></g>
<g><path style="opacity:0.699" fill="#d2b06c" d="M 105.5,47.5 C 106.458,49.3024 107.125,51.3024 107.5,53.5C 106.292,54.2341 104.959,54.5674 103.5,54.5C 103.029,52.4214 102.363,50.4214 101.5,48.5C 102.833,48.1667 104.167,47.8333 105.5,47.5 Z"/></g>
<g><path style="opacity:0.658" fill="#cfac6a" d="M 122.5,48.5 C 123.167,49.8333 123.833,51.1667 124.5,52.5C 124.5,52.8333 124.5,53.1667 124.5,53.5C 122.883,54.038 121.216,54.3713 119.5,54.5C 119.634,52.7085 119.301,51.0418 118.5,49.5C 119.708,48.7659 121.041,48.4326 122.5,48.5 Z"/></g>
<g><path style="opacity:0.732" fill="#e2c67d" d="M 13.5,50.5 C 12.7659,51.7079 12.4326,53.0413 12.5,54.5C 11.1667,54.5 9.83333,54.5 8.5,54.5C 8.5,53.5 8.5,52.5 8.5,51.5C 10.1172,50.962 11.7839,50.6287 13.5,50.5 Z"/></g>
<g><path style="opacity:0.713" fill="#e1c37b" d="M 21.5,50.5 C 20.962,52.1172 20.6287,53.7839 20.5,55.5C 18.7839,55.6287 17.1172,55.962 15.5,56.5C 16.0241,54.6943 16.6908,53.0276 17.5,51.5C 18.8333,51.1667 20.1667,50.8333 21.5,50.5 Z"/></g>
<g><path style="opacity:0.654" fill="#d6b36e" d="M 76.5,50.5 C 78.316,52.1184 79.6493,54.1184 80.5,56.5C 79.609,57.1098 78.609,57.4431 77.5,57.5C 76.1798,55.5368 74.8465,53.5368 73.5,51.5C 74.791,51.7373 75.791,51.404 76.5,50.5 Z"/></g>
<g><path style="opacity:0.669" fill="#dbb971" d="M 50.5,51.5 C 49.7368,53.3684 48.7368,55.0351 47.5,56.5C 46.1667,56.8333 44.8333,57.1667 43.5,57.5C 43.7497,55.326 44.7497,53.6594 46.5,52.5C 47.7079,51.7659 49.0413,51.4326 50.5,51.5 Z"/></g>
<g><path style="opacity:0.434" fill="#d9b76f" d="M 60.5,50.5 C 61.5,50.5 62.5,50.5 63.5,50.5C 63.5,52.5 63.5,54.5 63.5,56.5C 62.5,56.5 61.5,56.5 60.5,56.5C 60.5,54.5 60.5,52.5 60.5,50.5 Z"/></g>
<g><path style="opacity:0.66" fill="#cfac6a" d="M 115.5,50.5 C 115.517,52.5648 115.85,54.5648 116.5,56.5C 115.167,56.8333 113.833,57.1667 112.5,57.5C 111.659,55.6208 111.325,53.6208 111.5,51.5C 112.959,51.5674 114.292,51.2341 115.5,50.5 Z"/></g>
<g><path style="opacity:0.668" fill="#e2c67e" d="M 4.5,53.5 C 4.16667,54.8333 3.83333,56.1667 3.5,57.5C 2.16667,57.8333 0.833333,58.1667 -0.5,58.5C -0.5,57.1667 -0.5,55.8333 -0.5,54.5C 1.2161,54.3713 2.88277,54.038 4.5,53.5 Z"/></g>
<g><path style="opacity:0.683" fill="#cdaa68" d="M 124.5,53.5 C 124.5,55.5 124.5,57.5 124.5,59.5C 123.167,59.8333 121.833,60.1667 120.5,60.5C 120.675,58.3792 120.341,56.3792 119.5,54.5C 121.216,54.3713 122.883,54.038 124.5,53.5 Z"/></g>
<g><path style="opacity:0.678" fill="#e1c37b" d="M 8.5,54.5 C 9.83333,54.5 11.1667,54.5 12.5,54.5C 12.1667,55.8333 11.8333,57.1667 11.5,58.5C 10.1667,58.8333 8.83333,59.1667 7.5,59.5C 7.21552,57.5853 7.54885,55.9187 8.5,54.5 Z"/></g>
<g><path style="opacity:0.669" fill="#dfc077" d="M 20.5,55.5 C 20.1667,56.8333 19.8333,58.1667 19.5,59.5C 18.0413,59.4326 16.7079,59.7659 15.5,60.5C 15.5,59.1667 15.5,57.8333 15.5,56.5C 17.1172,55.962 18.7839,55.6287 20.5,55.5 Z"/></g>
<g><path style="opacity:0.685" fill="#cfac6a" d="M 107.5,53.5 C 108.15,55.4352 108.483,57.4352 108.5,59.5C 107.292,60.2341 105.959,60.5674 104.5,60.5C 104.167,58.5 103.833,56.5 103.5,54.5C 104.959,54.5674 106.292,54.2341 107.5,53.5 Z"/></g>
<g><path style="opacity:0.479" fill="#d5b26d" d="M 60.5,56.5 C 61.5,56.5 62.5,56.5 63.5,56.5C 63.5,58.8333 63.5,61.1667 63.5,63.5C 58.5939,65.4533 53.5939,67.12 48.5,68.5C 52.2132,66.315 56.2132,64.6483 60.5,63.5C 60.5,61.1667 60.5,58.8333 60.5,56.5 Z"/></g>
<g><path style="opacity:0.636" fill="#d2b06c" d="M 80.5,56.5 C 81.8202,58.4632 83.1535,60.4632 84.5,62.5C 83.1667,62.8333 81.8333,63.1667 80.5,63.5C 79.4706,61.4832 78.4706,59.4832 77.5,57.5C 78.609,57.4431 79.609,57.1098 80.5,56.5 Z"/></g>
<g><path style="opacity:0.727" fill="#cda968" d="M 116.5,56.5 C 116.232,58.099 116.566,59.4324 117.5,60.5C 117.5,61.8333 116.833,62.5 115.5,62.5C 114.391,62.5569 113.391,62.8902 112.5,63.5C 111.609,64.1098 110.609,64.4431 109.5,64.5C 110.957,62.3718 111.957,60.0384 112.5,57.5C 113.833,57.1667 115.167,56.8333 116.5,56.5 Z"/></g>
<g><path style="opacity:0.752" fill="#e1c37a" d="M 3.5,57.5 C 3.5,58.8333 3.5,60.1667 3.5,61.5C 2.29208,62.2341 0.95875,62.5674 -0.5,62.5C -0.5,61.1667 -0.5,59.8333 -0.5,58.5C 0.833333,58.1667 2.16667,57.8333 3.5,57.5 Z"/></g>
<g><path style="opacity:0.646" fill="#d9b66f" d="M 47.5,56.5 C 46.3197,59.5396 44.653,62.2063 42.5,64.5C 41.1667,64.8333 39.8333,65.1667 38.5,65.5C 39.6693,62.4887 41.336,59.822 43.5,57.5C 44.8333,57.1667 46.1667,56.8333 47.5,56.5 Z"/></g>
<g><path style="opacity:0.731" fill="#dfc077" d="M 11.5,58.5 C 11.5,59.8333 11.5,61.1667 11.5,62.5C 10.0413,62.4326 8.70792,62.7659 7.5,63.5C 7.5,62.1667 7.5,60.8333 7.5,59.5C 8.83333,59.1667 10.1667,58.8333 11.5,58.5 Z"/></g>
<g><path style="opacity:0.757" fill="#ddbd74" d="M 19.5,59.5 C 19.5,60.8333 19.5,62.1667 19.5,63.5C 18.1667,63.5 16.8333,63.5 15.5,63.5C 15.5,62.5 15.5,61.5 15.5,60.5C 16.7079,59.7659 18.0413,59.4326 19.5,59.5 Z"/></g>
<g><path style="opacity:0.722" fill="#cda968" d="M 108.5,59.5 C 108.5,61.5 108.5,63.5 108.5,65.5C 107.167,65.8333 105.833,66.1667 104.5,66.5C 104.5,64.5 104.5,62.5 104.5,60.5C 105.959,60.5674 107.292,60.2341 108.5,59.5 Z"/></g>
<g><path style="opacity:0.737" fill="#c9a666" d="M 124.5,59.5 C 124.5,62.8333 124.5,66.1667 124.5,69.5C 123.041,69.4326 121.708,69.7659 120.5,70.5C 120.5,67.1667 120.5,63.8333 120.5,60.5C 121.833,60.1667 123.167,59.8333 124.5,59.5 Z"/></g>
<g><path style="opacity:0.612" fill="#c9a666" d="M 117.5,60.5 C 118.525,61.3739 119.192,62.5405 119.5,64C 117.83,66.7879 116.497,69.6212 115.5,72.5C 114.167,72.8333 112.833,73.1667 111.5,73.5C 111.286,71.8561 111.62,70.3561 112.5,69C 111.117,67.7292 110.117,66.2292 109.5,64.5C 110.609,64.4431 111.609,64.1098 112.5,63.5C 113.543,65.8519 114.876,66.0185 116.5,64C 115.944,63.6174 115.611,63.1174 115.5,62.5C 116.833,62.5 117.5,61.8333 117.5,60.5 Z"/></g>
<g><path style="opacity:0.697" fill="#dfc077" d="M 3.5,61.5 C 3.5,62.8333 3.5,64.1667 3.5,65.5C 2.04125,65.4326 0.707917,65.7659 -0.5,66.5C -0.5,65.1667 -0.5,63.8333 -0.5,62.5C 0.95875,62.5674 2.29208,62.2341 3.5,61.5 Z"/></g>
<g><path style="opacity:0.768" fill="#ddbd75" d="M 11.5,62.5 C 11.5,63.5 11.5,64.5 11.5,65.5C 10.2921,66.2341 8.95875,66.5674 7.5,66.5C 7.5,65.5 7.5,64.5 7.5,63.5C 8.70792,62.7659 10.0413,62.4326 11.5,62.5 Z"/></g>
<g><path style="opacity:0.695" fill="#d1ae6b" d="M 84.5,62.5 C 84.5,62.8333 84.5,63.1667 84.5,63.5C 83.8333,64.1667 83.1667,64.8333 82.5,65.5C 81.5,65.1667 80.8333,64.5 80.5,63.5C 81.8333,63.1667 83.1667,62.8333 84.5,62.5 Z"/></g>
<g><path style="opacity:0.711" fill="#dbb971" d="M 15.5,63.5 C 16.8333,63.5 18.1667,63.5 19.5,63.5C 19.5,64.8333 19.5,66.1667 19.5,67.5C 18.0413,67.4326 16.7079,67.7659 15.5,68.5C 15.5,66.8333 15.5,65.1667 15.5,63.5 Z"/></g>
<g><path style="opacity:0.729" fill="#d3b06c" d="M 63.5,63.5 C 66.3798,63.9402 69.0465,64.9402 71.5,66.5C 70.7095,67.4013 69.7095,68.0679 68.5,68.5C 64.8768,66.4482 61.2101,66.2815 57.5,68C 51.158,70.8382 44.8246,73.6715 38.5,76.5C 39.7701,77.2876 40.7701,78.2876 41.5,79.5C 40.209,79.2627 39.209,79.596 38.5,80.5C 36.5742,79.7577 34.7409,78.7577 33,77.5C 32.2599,76.2506 32.4265,75.2506 33.5,74.5C 35.403,74.2041 37.0697,73.5375 38.5,72.5C 39.1667,72.5 39.5,72.1667 39.5,71.5C 42.4262,70.3024 45.4262,69.3024 48.5,68.5C 53.5939,67.12 58.5939,65.4533 63.5,63.5 Z"/></g>
<g><path style="opacity:0.681" fill="#cfac69" d="M 84.5,63.5 C 85.4013,64.2905 86.0679,65.2905 86.5,66.5C 86.2178,67.7777 85.5511,68.7777 84.5,69.5C 83.3263,68.4863 82.6596,67.153 82.5,65.5C 83.1667,64.8333 83.8333,64.1667 84.5,63.5 Z"/></g>
<g><path style="opacity:0.675" fill="#d6b36e" d="M 42.5,64.5 C 41.242,66.6869 40.242,69.0202 39.5,71.5C 38.8333,71.5 38.5,71.8333 38.5,72.5C 37.0697,73.5375 35.403,74.2041 33.5,74.5C 34.7738,71.2402 36.4405,68.2402 38.5,65.5C 39.8333,65.1667 41.1667,64.8333 42.5,64.5 Z"/></g>
<g><path style="opacity:0.734" fill="#ddbd75" d="M 3.5,65.5 C 3.5,66.5 3.5,67.5 3.5,68.5C 2.16667,69.1667 0.833333,69.8333 -0.5,70.5C -0.5,69.1667 -0.5,67.8333 -0.5,66.5C 0.707917,65.7659 2.04125,65.4326 3.5,65.5 Z"/></g>
<g><path style="opacity:0.649" fill="#dbb971" d="M 11.5,65.5 C 11.366,67.2915 11.6993,68.9582 12.5,70.5C 10.7085,70.366 9.04181,70.6993 7.5,71.5C 7.5,69.8333 7.5,68.1667 7.5,66.5C 8.95875,66.5674 10.2921,66.2341 11.5,65.5 Z"/></g>
<g><path style="opacity:0.699" fill="#c9a666" d="M 108.5,65.5 C 108.583,69.3352 107.917,73.0019 106.5,76.5C 105.041,76.4326 103.708,76.7659 102.5,77.5C 103.167,73.8333 103.833,70.1667 104.5,66.5C 105.833,66.1667 107.167,65.8333 108.5,65.5 Z"/></g>
<g><path style="opacity:0.661" fill="#cdaa68" d="M 86.5,66.5 C 87.7368,67.9649 88.7368,69.6316 89.5,71.5C 87.636,73.0138 85.636,74.3472 83.5,75.5C 81.2487,74.3052 78.9154,73.3052 76.5,72.5C 77.5137,71.3263 78.847,70.6596 80.5,70.5C 82.1368,71.2178 83.8034,71.3845 85.5,71C 84.944,70.6174 84.6107,70.1174 84.5,69.5C 85.5511,68.7777 86.2178,67.7777 86.5,66.5 Z"/></g>
<g><path style="opacity:0.665" fill="#d9b66f" d="M 19.5,67.5 C 20.038,69.1172 20.3713,70.7839 20.5,72.5C 19.1667,73.1667 17.8333,73.8333 16.5,74.5C 16.1667,72.5 15.8333,70.5 15.5,68.5C 16.7079,67.7659 18.0413,67.4326 19.5,67.5 Z"/></g>
<g><path style="opacity:0.677" fill="#cfac6a" d="M 71.5,66.5 C 74.6865,67.5969 77.6865,68.9303 80.5,70.5C 78.847,70.6596 77.5137,71.3263 76.5,72.5C 73.6717,71.3447 71.0051,70.0114 68.5,68.5C 69.7095,68.0679 70.7095,67.4013 71.5,66.5 Z"/></g>
<g><path style="opacity:0.671" fill="#dbb971" d="M 3.5,68.5 C 3.62867,70.2161 3.962,71.8828 4.5,73.5C 3.04125,73.4326 1.70792,73.7659 0.5,74.5C 0.5,73.8333 0.166667,73.5 -0.5,73.5C -0.5,72.5 -0.5,71.5 -0.5,70.5C 0.833333,69.8333 2.16667,69.1667 3.5,68.5 Z"/></g>
<g><path style="opacity:0.687" fill="#c6a364" d="M 124.5,69.5 C 124.5,70.1667 124.5,70.8333 124.5,71.5C 122.833,72.1667 121.167,72.8333 119.5,73.5C 119.557,72.391 119.89,71.391 120.5,70.5C 121.708,69.7659 123.041,69.4326 124.5,69.5 Z"/></g>
<g><path style="opacity:0.679" fill="#d9b66f" d="M 12.5,70.5 C 12.5,72.1667 12.5,73.8333 12.5,75.5C 11.609,76.1098 10.609,76.4431 9.5,76.5C 8.69079,74.9724 8.02412,73.3057 7.5,71.5C 9.04181,70.6993 10.7085,70.366 12.5,70.5 Z"/></g>
<g><path style="opacity:0.675" fill="#c9a566" d="M 89.5,71.5 C 91.0698,72.8748 91.9031,74.5415 92,76.5C 86.5606,81.1114 80.7273,85.1114 74.5,88.5C 71.4262,89.3024 68.4262,90.3024 65.5,91.5C 72.0986,86.5207 78.7653,81.5207 85.5,76.5C 85.0431,75.7025 84.3764,75.3691 83.5,75.5C 85.636,74.3472 87.636,73.0138 89.5,71.5 Z"/></g>
<g><path style="opacity:0.702" fill="#c5a164" d="M 124.5,71.5 C 124.5,72.1667 124.5,72.8333 124.5,73.5C 123.833,73.5 123.5,73.8333 123.5,74.5C 122.292,75.2341 120.959,75.5674 119.5,75.5C 119.5,74.8333 119.5,74.1667 119.5,73.5C 121.167,72.8333 122.833,72.1667 124.5,71.5 Z"/></g>
<g><path style="opacity:0.716" fill="#d6b36d" d="M 20.5,72.5 C 21.1667,74.8333 21.8333,77.1667 22.5,79.5C 21.1667,79.8333 19.8333,80.1667 18.5,80.5C 18.0293,78.4214 17.3627,76.4214 16.5,74.5C 17.8333,73.8333 19.1667,73.1667 20.5,72.5 Z"/></g>
<g><path style="opacity:0.725" fill="#c6a364" d="M 115.5,72.5 C 115.5,73.5 115.5,74.5 115.5,75.5C 113.784,75.6287 112.117,75.962 110.5,76.5C 111.11,75.609 111.443,74.609 111.5,73.5C 112.833,73.1667 114.167,72.8333 115.5,72.5 Z"/></g>
<g><path style="opacity:0.693" fill="#d9b66f" d="M 4.5,73.5 C 4.62867,75.2161 4.962,76.8828 5.5,78.5C 4.29208,79.2341 2.95875,79.5674 1.5,79.5C 0.699293,77.9582 0.36596,76.2915 0.5,74.5C 1.70792,73.7659 3.04125,73.4326 4.5,73.5 Z"/></g>
<g><path style="opacity:0.683" fill="#c39f62" d="M 123.5,74.5 C 123.277,78.1621 122.277,81.4954 120.5,84.5C 119.041,84.4326 117.708,84.7659 116.5,85.5C 117.503,82.1503 118.503,78.817 119.5,75.5C 120.959,75.5674 122.292,75.2341 123.5,74.5 Z"/></g>
<g><path style="opacity:0.687" fill="#d6b46e" d="M 12.5,75.5 C 14.6469,76.9321 14.9802,78.7655 13.5,81C 9.0774,82.0814 7.74407,80.5814 9.5,76.5C 10.609,76.4431 11.609,76.1098 12.5,75.5 Z"/></g>
<g><path style="opacity:0.716" fill="#c5a164" d="M 115.5,75.5 C 114.89,76.391 114.557,77.391 114.5,78.5C 112.883,79.038 111.216,79.3713 109.5,79.5C 110.11,78.609 110.443,77.609 110.5,76.5C 112.117,75.962 113.784,75.6287 115.5,75.5 Z"/></g>
<g><path style="opacity:0.69" fill="#c6a364" d="M 106.5,76.5 C 106.443,77.609 106.11,78.609 105.5,79.5C 103.784,79.6287 102.117,79.962 100.5,80.5C 100.932,79.2905 101.599,78.2905 102.5,77.5C 103.708,76.7659 105.041,76.4326 106.5,76.5 Z"/></g>
<g><path style="opacity:0.697" fill="#d6b36d" d="M 5.5,78.5 C 5.97065,80.5786 6.63732,82.5786 7.5,84.5C 6.16667,85.1667 4.83333,85.8333 3.5,86.5C 2.83333,84.1667 2.16667,81.8333 1.5,79.5C 2.95875,79.5674 4.29208,79.2341 5.5,78.5 Z"/></g>
<g><path style="opacity:0.675" fill="#c29e62" d="M 114.5,78.5 C 113.438,83.0532 111.438,87.0532 108.5,90.5C 108.565,90.0618 108.399,89.7284 108,89.5C 106.67,90.5822 105.17,91.2488 103.5,91.5C 106.025,87.7835 108.025,83.7835 109.5,79.5C 111.216,79.3713 112.883,79.038 114.5,78.5 Z"/></g>
<g><path style="opacity:0.649" fill="#d2af6b" d="M 22.5,79.5 C 24.7805,80.8185 26.7805,82.4852 28.5,84.5C 27.209,84.2627 26.209,84.596 25.5,85.5C 24.1054,84.1854 23.1054,84.5188 22.5,86.5C 21.5,86.5 20.5,86.5 19.5,86.5C 20.5234,84.4231 20.19,82.4231 18.5,80.5C 19.8333,80.1667 21.1667,79.8333 22.5,79.5 Z"/></g>
<g><path style="opacity:0.734" fill="#c5a164" d="M 105.5,79.5 C 105.443,80.609 105.11,81.609 104.5,82.5C 102.784,82.6287 101.117,82.962 99.5,83.5C 98.2848,82.221 98.6182,81.221 100.5,80.5C 102.117,79.962 103.784,79.6287 105.5,79.5 Z"/></g>
<g><path style="opacity:0.687" fill="#cfac6a" d="M 41.5,79.5 C 43.3325,80.2485 44.9991,81.2485 46.5,82.5C 45.7095,83.4013 44.7095,84.0679 43.5,84.5C 41.246,83.8763 39.5794,82.543 38.5,80.5C 39.209,79.596 40.209,79.2627 41.5,79.5 Z"/></g>
<g><path style="opacity:0.657" fill="#cda968" d="M 46.5,82.5 C 48.5,83.8333 50.5,85.1667 52.5,86.5C 51.5,87.1667 50.5,87.8333 49.5,88.5C 47.2048,87.5254 45.2048,86.1921 43.5,84.5C 44.7095,84.0679 45.7095,83.4013 46.5,82.5 Z"/></g>
<g><path style="opacity:0.659" fill="#c4a063" d="M 104.5,82.5 C 104.516,84.4841 103.516,85.4841 101.5,85.5C 100.287,85.2528 99.62,84.5862 99.5,83.5C 101.117,82.962 102.784,82.6287 104.5,82.5 Z"/></g>
<g><path style="opacity:0.647" fill="#d2b06c" d="M 7.5,84.5 C 8.77287,86.7128 9.77287,89.0462 10.5,91.5C 9.04125,91.4326 7.70792,91.7659 6.5,92.5C 5.5,90.5 4.5,88.5 3.5,86.5C 4.83333,85.8333 6.16667,85.1667 7.5,84.5 Z"/></g>
<g><path style="opacity:0.761" fill="#c09d60" d="M 120.5,84.5 C 120.5,84.8333 120.5,85.1667 120.5,85.5C 118.883,86.038 117.216,86.3713 115.5,86.5C 115.5,85.8333 115.833,85.5 116.5,85.5C 117.708,84.7659 119.041,84.4326 120.5,84.5 Z"/></g>
<g><path style="opacity:0.657" fill="#cfac6a" d="M 28.5,84.5 C 29.562,86.0992 29.562,87.7659 28.5,89.5C 27.7095,90.4013 26.7095,91.0679 25.5,91.5C 22.2795,91.2197 20.2795,89.5531 19.5,86.5C 20.5,86.5 21.5,86.5 22.5,86.5C 23.9473,87.8852 24.9473,87.5518 25.5,85.5C 26.209,84.596 27.209,84.2627 28.5,84.5 Z"/></g>
<g><path style="opacity:0.662" fill="#bd995e" d="M 120.5,85.5 C 118.346,91.6367 115.013,96.97 110.5,101.5C 106.914,102.793 103.248,103.793 99.5,104.5C 101.495,102.36 103.995,101.027 107,100.5C 110.456,96.2107 113.289,91.5441 115.5,86.5C 117.216,86.3713 118.883,86.038 120.5,85.5 Z"/></g>
<g><path style="opacity:0.655" fill="#c9a666" d="M 52.5,86.5 C 55.7198,88.6029 58.7198,90.9362 61.5,93.5C 60.391,93.5569 59.391,93.8902 58.5,94.5C 54.9754,93.2411 51.9754,91.2411 49.5,88.5C 50.5,87.8333 51.5,87.1667 52.5,86.5 Z"/></g>
<g><path style="opacity:0.698" fill="#c6a264" d="M 74.5,88.5 C 70.5681,91.4793 66.5681,94.4793 62.5,97.5C 60.739,96.9649 59.4057,95.9649 58.5,94.5C 59.391,93.8902 60.391,93.5569 61.5,93.5C 62.6049,92.3995 63.9382,91.7329 65.5,91.5C 68.4262,90.3024 71.4262,89.3024 74.5,88.5 Z"/></g>
<g><path style="opacity:0.682" fill="#cda968" d="M 28.5,89.5 C 30.1667,90.5 31.5,91.8333 32.5,93.5C 31.7095,94.4013 30.7095,95.0679 29.5,95.5C 27.8333,94.5 26.5,93.1667 25.5,91.5C 26.7095,91.0679 27.7095,90.4013 28.5,89.5 Z"/></g>
<g><path style="opacity:0.719" fill="#bd995e" d="M 108.5,90.5 C 102.996,100.336 94.9964,107.336 84.5,111.5C 82.4471,111.402 80.7804,112.069 79.5,113.5C 68.3984,117.116 57.0651,117.45 45.5,114.5C 47.2608,113.687 48.9275,112.687 50.5,111.5C 72.2736,115.467 89.9402,108.801 103.5,91.5C 105.17,91.2488 106.67,90.5822 108,89.5C 108.399,89.7284 108.565,90.0618 108.5,90.5 Z"/></g>
<g><path style="opacity:0.632" fill="#d0ae6a" d="M 10.5,91.5 C 11.1667,91.5 11.5,91.8333 11.5,92.5C 9.97306,92.427 8.97306,93.0937 8.5,94.5C 7.5,94.1667 6.83333,93.5 6.5,92.5C 7.70792,91.7659 9.04125,91.4326 10.5,91.5 Z"/></g>
<g><path style="opacity:0.709" fill="#cfac69" d="M 11.5,92.5 C 12.6005,93.6049 13.2671,94.9382 13.5,96.5C 12.209,96.2627 11.209,96.596 10.5,97.5C 9.09368,97.0269 8.42702,96.0269 8.5,94.5C 8.97306,93.0937 9.97306,92.427 11.5,92.5 Z"/></g>
<g><path style="opacity:0.696" fill="#c9a666" d="M 32.5,93.5 C 35.7198,95.6029 38.7198,97.9362 41.5,100.5C 40.5,101.167 39.5,101.833 38.5,102.5C 34.9181,100.88 31.9181,98.5469 29.5,95.5C 30.7095,95.0679 31.7095,94.4013 32.5,93.5 Z"/></g>
<g><path style="opacity:0.722" fill="#cda968" d="M 13.5,96.5 C 15.2624,97.2623 16.2624,98.5956 16.5,100.5C 15.609,101.11 14.609,101.443 13.5,101.5C 11.7376,100.738 10.7376,99.4044 10.5,97.5C 11.209,96.596 12.209,96.2627 13.5,96.5 Z"/></g>
<g><path style="opacity:0.685" fill="#bf9b60" d="M 60.5,109.5 C 62.938,107.465 65.6047,105.799 68.5,104.5C 73.9398,103.748 78.7731,101.748 83,98.5C 86.1726,99.3416 87.0059,101.175 85.5,104C 77.4515,107.184 69.1182,109.017 60.5,109.5 Z"/></g>
<g><path style="opacity:0.68" fill="#c9a566" d="M 16.5,100.5 C 21.7,100.104 24.3667,102.437 24.5,107.5C 22.1815,107.992 20.1815,108.992 18.5,110.5C 17.5416,110.047 16.7083,109.381 16,108.5C 15.6162,105.94 14.7829,103.606 13.5,101.5C 14.609,101.443 15.609,101.11 16.5,100.5 Z M 18.5,104.5 C 19.5,104.5 20.5,104.5 21.5,104.5C 21.5,105.5 21.5,106.5 21.5,107.5C 20.5,107.5 19.5,107.5 18.5,107.5C 18.5,106.5 18.5,105.5 18.5,104.5 Z"/></g>
<g><path style="opacity:0.752" fill="#c7a364" d="M 41.5,100.5 C 42.609,100.557 43.609,100.89 44.5,101.5C 43.4863,102.674 42.153,103.34 40.5,103.5C 39.5084,103.672 38.8417,103.338 38.5,102.5C 39.5,101.833 40.5,101.167 41.5,100.5 Z"/></g>
<g><path style="opacity:0.621" fill="#c5a164" d="M 44.5,101.5 C 45.8333,101.833 47.1667,102.167 48.5,102.5C 47.1667,103.5 45.8333,104.5 44.5,105.5C 42.847,105.34 41.5137,104.674 40.5,103.5C 42.153,103.34 43.4863,102.674 44.5,101.5 Z"/></g>
<g><path style="opacity:0.679" fill="#bb965d" d="M 110.5,101.5 C 110.573,103.027 109.906,104.027 108.5,104.5C 107.209,104.263 106.209,104.596 105.5,105.5C 104.209,105.263 103.209,105.596 102.5,106.5C 101.391,106.557 100.391,106.89 99.5,107.5C 99.5,106.5 99.5,105.5 99.5,104.5C 103.248,103.793 106.914,102.793 110.5,101.5 Z"/></g>
<g><path style="opacity:0.684" fill="#c39e62" d="M 48.5,102.5 C 53.3241,104.151 58.3241,104.817 63.5,104.5C 61.8102,106.342 59.8102,107.675 57.5,108.5C 52.9623,108.282 48.6289,107.282 44.5,105.5C 45.8333,104.5 47.1667,103.5 48.5,102.5 Z"/></g>
<g><path style="opacity:0.703" fill="#c5a164" d="M 38.5,107.5 C 36.597,107.796 34.9303,108.463 33.5,109.5C 31.6512,105.506 32.9845,104.006 37.5,105C 38.2524,105.671 38.5858,106.504 38.5,107.5 Z"/></g>
<g><path style="opacity:0.646" fill="#c09d60" d="M 63.5,104.5 C 65.1667,104.5 66.8333,104.5 68.5,104.5C 65.6047,105.799 62.938,107.465 60.5,109.5C 59.609,108.89 58.609,108.557 57.5,108.5C 59.8102,107.675 61.8102,106.342 63.5,104.5 Z"/></g>
<g><path style="opacity:0.705" fill="#b8935b" d="M 108.5,104.5 C 108.573,109.27 106.407,111.27 102,110.5C 93.1878,117.491 83.3545,122.158 72.5,124.5C 67.1667,124.5 61.8333,124.5 56.5,124.5C 58.964,123.433 61.2974,122.1 63.5,120.5C 76.9917,120.115 88.9917,115.782 99.5,107.5C 100.391,106.89 101.391,106.557 102.5,106.5C 103.947,107.885 104.947,107.552 105.5,105.5C 106.209,104.596 107.209,104.263 108.5,104.5 Z"/></g>
<g><path style="opacity:0.674" fill="#c6a364" d="M 24.5,107.5 C 25.5,107.833 26.1667,108.5 26.5,109.5C 25.0413,109.433 23.7079,109.766 22.5,110.5C 21.1667,110.5 19.8333,110.5 18.5,110.5C 20.1815,108.992 22.1815,107.992 24.5,107.5 Z"/></g>
<g><path style="opacity:0.702" fill="#c39f62" d="M 38.5,107.5 C 41.9889,108.658 45.3223,109.991 48.5,111.5C 46.847,111.66 45.5137,112.326 44.5,113.5C 40.6588,112.402 36.9922,111.069 33.5,109.5C 34.9303,108.463 36.597,107.796 38.5,107.5 Z"/></g>
<g><path style="opacity:0.749" fill="#c5a164" d="M 26.5,109.5 C 27.1667,109.833 27.8333,110.167 28.5,110.5C 27.3285,111.345 25.9952,112.011 24.5,112.5C 23.5,112.167 22.8333,111.5 22.5,110.5C 23.7079,109.766 25.0413,109.433 26.5,109.5 Z"/></g>
<g><path style="opacity:0.695" fill="#c39f62" d="M 28.5,110.5 C 31.2028,112.181 33.8695,113.847 36.5,115.5C 35.5,116.167 34.5,116.833 33.5,117.5C 30.0078,116.59 27.0078,114.924 24.5,112.5C 25.9952,112.011 27.3285,111.345 28.5,110.5 Z"/></g>
<g><path style="opacity:0.81" fill="#c09d60" d="M 48.5,111.5 C 49.1667,111.5 49.8333,111.5 50.5,111.5C 48.9275,112.687 47.2608,113.687 45.5,114.5C 44.8333,114.5 44.5,114.167 44.5,113.5C 45.5137,112.326 46.847,111.66 48.5,111.5 Z"/></g>
<g><path style="opacity:0.484" fill="#bb965d" d="M 84.5,111.5 C 83.2196,112.931 81.5529,113.598 79.5,113.5C 80.7804,112.069 82.4471,111.402 84.5,111.5 Z"/></g>
<g><path style="opacity:0.704" fill="#c09d60" d="M 36.5,115.5 C 37.4916,115.328 38.1583,115.662 38.5,116.5C 37.2905,116.932 36.2905,117.599 35.5,118.5C 34.5084,118.672 33.8417,118.338 33.5,117.5C 34.5,116.833 35.5,116.167 36.5,115.5 Z"/></g>
<g><path style="opacity:0.701" fill="#bd995f" d="M 38.5,116.5 C 44.9772,118.729 51.6439,120.062 58.5,120.5C 56.1898,121.325 54.1898,122.658 52.5,124.5C 52.1667,124.5 51.8333,124.5 51.5,124.5C 45.9612,123.097 40.6278,121.097 35.5,118.5C 36.2905,117.599 37.2905,116.932 38.5,116.5 Z"/></g>
<g><path style="opacity:0.673" fill="#ba965d" d="M 58.5,120.5 C 60.1667,120.5 61.8333,120.5 63.5,120.5C 61.2974,122.1 58.964,123.433 56.5,124.5C 55.1667,124.5 53.8333,124.5 52.5,124.5C 54.1898,122.658 56.1898,121.325 58.5,120.5 Z"/></g>
</svg>
